<?xml version="1.0" encoding="utf-8"?>
<!-- Generator: Adobe Illustrator 24.0.1, SVG Export Plug-In . SVG Version: 6.00 Build 0)  -->
<svg version="1.1" id="Layer_1" xmlns="http://www.w3.org/2000/svg" xmlns:xlink="http://www.w3.org/1999/xlink" x="0px" y="0px"
	 viewBox="0 0 21 21" style="enable-background:new 0 0 21 21;" xml:space="preserve">
<style type="text/css">
	.st0{fill-rule:evenodd;clip-rule:evenodd;}
</style>
<path id="Path" class="st0" d="M20.3,9.8H2.6l4-4c0.3-0.3,0.3-0.8,0-1.1s-0.8-0.3-1.1,0L0.2,10c-0.3,0.3-0.3,0.8,0,1.1l5.3,5.2
	c0.1,0.1,0.3,0.2,0.5,0.2c0.2,0,0.4-0.1,0.5-0.2c0.3-0.3,0.3-0.8,0-1.1l-4-4h17.7c0.4,0,0.8-0.3,0.8-0.8C21,10.1,20.7,9.8,20.3,9.8"
	/>
</svg>
